<svg width="17" height="17" viewBox="0 0 17 17" fill="none" xmlns="http://www.w3.org/2000/svg">
<g clip-path="url(#clip0)">
<path d="M16.4438 12.1795C16.401 12.1078 16.1359 11.5318 14.8604 10.348C13.5251 9.10831 13.7044 9.3096 15.3128 7.16612C16.2924 5.8607 16.684 5.0635 16.5614 4.7227C16.4448 4.39784 15.7244 4.48354 15.7244 4.48354L13.3288 4.49749C13.3288 4.49749 13.1514 4.47357 13.0189 4.5523C12.8903 4.63002 12.8076 4.80939 12.8076 4.80939C12.8076 4.80939 12.4279 5.81985 11.9217 6.67883C10.8545 8.49147 10.427 8.58713 10.2526 8.47453C9.84699 8.21245 9.94863 7.42023 9.94863 6.8582C9.94863 5.10137 10.2147 4.36894 9.42945 4.1796C9.16837 4.11682 8.97704 4.07497 8.31038 4.068C7.45538 4.05903 6.73092 4.07098 6.32136 4.27128C6.04832 4.40481 5.83806 4.70277 5.9666 4.71971C6.12505 4.74063 6.48379 4.81637 6.67412 5.07546C6.92026 5.40929 6.91129 6.16065 6.91129 6.16065C6.91129 6.16065 7.05279 8.22839 6.58145 8.48549C6.25758 8.66187 5.81414 8.30213 4.86248 6.65691C4.37519 5.81486 4.00648 4.88313 4.00648 4.88313C4.00648 4.88313 3.93573 4.70974 3.80918 4.61707C3.65572 4.50446 3.44047 4.46859 3.44047 4.46859L1.16247 4.48254C1.16247 4.48254 0.820666 4.49251 0.695107 4.64098C0.583499 4.77352 0.686138 5.04656 0.686138 5.04656C0.686138 5.04656 2.46988 9.21892 4.48879 11.3225C6.34129 13.2508 8.44391 13.1242 8.44391 13.1242H9.39657C9.39657 13.1242 9.68456 13.0923 9.83104 12.9339C9.96657 12.7884 9.96158 12.5153 9.96158 12.5153C9.96158 12.5153 9.94265 11.2368 10.5366 11.0485C11.1215 10.8631 11.8729 12.2842 12.6691 12.8312C13.271 13.2448 13.7284 13.1541 13.7284 13.1541L15.8579 13.1242C15.8579 13.1242 16.972 13.0555 16.4438 12.1795Z" fill="#2D383F"/>
</g>
<defs>
<clipPath id="clip0">
<rect width="15.9429" height="15.9429" fill="white" transform="translate(0.643066 0.642822)"/>
</clipPath>
</defs>
</svg>
